# Blender 5.0.1
# www.blender.org
o Sphere
v -0.016355 0.999440 0.117599
v -0.225891 -0.618062 -0.771975
v -0.070006 0.893439 -0.461335
v 0.077222 0.628184 -0.784051
v 0.057919 0.301900 -0.959114
v 0.092938 -0.293132 -0.961119
v 0.291113 0.098970 -0.959673
v 0.272674 0.778878 -0.579104
v 0.385242 0.487290 -0.794419
v 0.336874 -0.474460 -0.826422
v 0.248711 -0.757496 -0.632487
v 0.604393 0.300872 -0.748774
v 0.558883 -0.149714 -0.831077
v 0.686881 0.503271 -0.537872
v 0.624289 -0.487417 -0.628039
v 0.327407 -0.898617 -0.336240
v 0.189834 0.975984 -0.203282
v 0.496393 0.788463 -0.391557
v 0.844562 0.108868 -0.547531
v 0.850226 0.475433 -0.260919
v 0.939559 -0.090259 -0.375172
v 0.918663 -0.316658 -0.269816
v 0.455747 -0.901325 0.002548
v 1.000522 0.115511 -0.064524
v 0.759822 -0.641350 -0.220106
v 0.551784 0.842014 -0.044455
v 0.168447 -0.984947 -0.112553
v 0.738238 0.691513 0.048730
v 0.881804 0.467887 0.181001
v 0.956240 0.098975 0.307534
v 0.956628 -0.295861 0.173572
v 0.744334 -0.638968 0.230140
v 0.411633 0.895946 0.221526
v 0.599604 0.638968 0.497466
v 0.756879 0.292918 0.599509
v 0.765762 -0.098975 0.650062
v 0.689306 -0.475433 0.561978
v 0.197698 0.986420 0.025750
v 0.467235 -0.791403 0.422922
v 0.469502 -0.364021 0.825238
v 0.191191 -0.777723 0.609921
v 0.251166 0.779282 0.591233
v 0.345413 0.479008 0.825073
v 0.371926 0.100138 0.941452
v 0.260919 -0.475433 0.850226
v 0.158944 -0.965865 0.244808
v -0.000045 -0.031517 1.019163
v 0.102623 0.932889 0.368494
v -0.080506 0.638968 0.774930
v -0.183979 0.307755 0.949415
v -0.183979 -0.307755 0.949415
v -0.080506 -0.638968 0.774930
v -0.396471 -0.491477 0.786423
v -0.198494 0.897346 0.428204
v -0.378907 0.563562 0.755736
v -0.601983 0.077002 0.812629
v -0.385268 -0.787941 0.506962
v -0.140975 -0.901818 0.433682
v -0.604884 0.638968 0.491032
v -0.667528 -0.279475 0.712111
v -0.752602 0.470410 0.496145
v -0.893623 0.098976 0.458703
v -0.554854 0.805655 0.256621
v -0.898113 -0.388605 0.275974
v -0.721828 -0.600535 0.397319
v -0.442991 -0.893458 0.139565
v -0.884792 0.475433 0.090034
v -1.005684 0.130347 0.017193
v -0.956011 -0.313439 -0.047493
v -0.956239 -0.098976 -0.307534
v -0.435279 -0.900310 -0.146609
v -0.627993 0.767755 -0.228925
v -0.827658 0.479008 -0.339171
v -0.867751 0.115513 -0.502210
v -0.748151 -0.485139 -0.484161
v -0.746182 -0.661925 -0.189317
v -0.278834 0.970951 -0.019202
v -0.327088 0.887003 -0.348612
v -0.566425 0.475433 -0.685657
v -0.624227 0.098976 -0.786963
v -0.683322 -0.268550 -0.699176
v -0.425443 -0.792708 -0.455675
v -0.297418 0.588597 -0.778600
v -0.209111 0.071271 -0.990741
v -0.288332 -0.300258 -0.919952
v -0.110034 -0.895133 -0.451043
v -0.130902 -1.002543 -0.021483
vn 0.0580 0.0694 -0.9959
vn 0.0578 -0.5440 -0.8371
vn 0.1796 0.4568 -0.8712
vn 0.3090 -0.1527 -0.9387
vn 0.2920 0.8720 -0.3929
vn 0.4115 0.2706 -0.8703
vn 0.6717 0.0669 -0.7378
vn 0.0406 0.9981 -0.0469
vn 0.5177 -0.3650 -0.7738
vn 0.5256 -0.7235 -0.4476
vn 0.7443 0.3120 -0.5905
vn 0.7673 -0.1694 -0.6186
vn 0.8016 -0.3115 -0.5103
vn 0.4171 0.8859 -0.2032
vn 0.6903 0.6371 -0.3431
vn 0.6764 0.7039 -0.2166
vn 0.5411 -0.8140 -0.2115
vn 0.9270 0.2221 -0.3024
vn 0.4318 0.9002 -0.0558
vn 0.8523 -0.5221 0.0321
vn 0.9633 0.2373 0.1252
vn 0.2574 -0.9646 0.0583
vn 0.0753 -0.9956 0.0552
vn 0.5725 -0.7969 0.1927
vn 0.6105 0.7425 0.2756
vn 0.3785 -0.8980 0.2245
vn 0.8486 0.0866 0.5219
vn 0.8976 -0.1409 0.4177
vn 0.2132 0.9546 0.2082
vn 0.4287 0.6350 0.6427
vn 0.5777 0.4612 0.6734
vn 0.5556 0.2794 0.7831
vn 0.6681 -0.2955 0.6829
vn 0.2946 0.8672 0.4015
vn 0.4347 0.7874 0.4371
vn 0.2624 -0.1821 0.9476
vn 0.0968 -0.3038 0.9478
vn 0.0137 0.8274 0.5615
vn 0.0245 -0.4599 0.8876
vn 0.1369 -0.6356 0.7598
vn -0.0306 -0.7892 0.6133
vn 0.0934 -0.8884 0.4495
vn -0.0573 0.9579 0.2813
vn -0.2280 0.7419 0.6305
vn -0.1813 0.5021 0.8456
vn -0.0733 -0.9741 0.2139
vn -0.3212 0.0205 0.9468
vn -0.4429 0.3018 0.8443
vn -0.4422 -0.1672 0.8812
vn -0.4378 -0.2578 0.8613
vn -0.5785 -0.5191 0.6292
vn -0.3246 -0.8944 0.3079
vn -0.7461 0.2199 0.6285
vn -0.5376 -0.7843 0.3097
vn -0.8510 -0.1774 0.4943
vn -0.7834 -0.3625 0.5049
vn -0.7451 0.6183 0.2502
vn -0.7916 -0.6035 0.0960
vn -0.9807 -0.1309 0.1451
vn -0.5070 0.8619 0.0091
vn -0.8508 -0.5246 0.0304
vn -0.9918 -0.0992 -0.0810
vn -0.7997 0.5917 -0.1015
vn -0.9415 0.2188 -0.2563
vn -0.8919 -0.3492 -0.2872
vn -0.4197 0.8924 -0.1659
vn -0.5573 -0.7785 -0.2888
vn -0.6262 0.6157 -0.4784
vn -0.6123 -0.6799 -0.4035
vn -0.5094 -0.5246 -0.6821
vn -0.4854 0.7022 -0.5208
vn -0.2880 -0.9015 -0.3230
vn -0.2434 -0.7759 -0.5820
vn -0.0524 0.9930 -0.1063
vn -0.1028 -0.1650 -0.9809
vn -0.0887 0.7492 -0.6563
vn -0.0629 0.4747 -0.8779
vn 0.1114 -0.8854 -0.4513
vn 0.4814 0.6327 -0.6066
vn 0.0635 -0.0284 -0.9976
vn 0.0481 0.7823 -0.6211
vn 0.0690 -0.5784 -0.8128
vn 0.2671 0.6370 -0.7231
vn 0.2755 0.3191 -0.9068
vn 0.3283 -0.2375 -0.9142
vn 0.1482 0.8889 -0.4335
vn 0.4373 -0.5970 -0.6725
vn 0.5080 0.1049 -0.8550
vn 0.5523 0.4829 -0.6795
vn 0.9857 -0.1500 -0.0774
vn 0.7629 -0.2181 -0.6086
vn 0.5407 -0.6946 -0.4745
vn 0.8244 0.3407 -0.4520
vn 0.3249 -0.9367 -0.1306
vn 0.7834 -0.4490 -0.4297
vn 0.6910 0.6857 -0.2286
vn 0.9349 0.1825 -0.3044
vn 0.9324 0.3563 -0.0605
vn 0.4176 -0.6225 0.6619
vn 0.3494 0.9370 -0.0059
vn 0.8935 -0.4456 -0.0556
vn 0.8541 0.5175 -0.0522
vn 0.6608 -0.7501 0.0267
vn 0.9925 -0.0385 0.1164
vn 0.5780 0.8037 0.1416
vn 0.8196 -0.4483 0.3568
vn 0.6443 -0.6383 0.4214
vn 0.7151 0.6337 0.2951
vn 0.7685 0.4755 0.4282
vn 0.8685 0.3084 0.3882
vn 0.8465 -0.2781 0.4540
vn 0.4629 -0.6089 0.6442
vn 0.6274 0.1136 0.7704
vn 0.5637 -0.0872 0.8214
vn 0.1410 0.9714 0.1908
vn 0.1253 0.2993 0.9459
vn 0.2460 -0.8703 0.4267
vn 0.2327 -0.2234 0.9465
vn -0.0070 0.8007 0.5990
vn 0.1499 0.6363 0.7567
vn 0.0639 0.4494 0.8910
vn -0.4234 0.7786 0.4633
vn -0.2055 -0.5056 0.8379
vn -0.2844 -0.6633 0.6922
vn -0.1709 -0.7657 0.6201
vn -0.3277 -0.0203 0.9446
vn -0.9021 0.3125 0.2975
vn -0.5282 -0.5929 0.6078
vn -0.5710 0.5197 0.6355
vn -0.5914 0.3558 0.7237
vn -0.2056 0.9591 0.1947
vn -0.2266 -0.9520 0.2057
vn -0.7723 -0.0368 0.6341
vn -0.7132 0.6341 0.2987
vn -0.3378 0.9171 0.2115
vn -0.9674 -0.0810 0.2398
vn -0.6728 -0.7324 0.1046
vn -0.7200 0.6919 0.0544
vn -0.7499 0.3378 -0.5688
vn -0.3235 -0.9461 0.0139
vn -0.9286 0.3508 -0.1207
vn -0.9530 0.1593 -0.2576
vn -0.8712 -0.4236 -0.2482
vn -0.8392 -0.1325 -0.5274
vn -0.8423 -0.2312 -0.4869
vn -0.4174 0.2829 -0.8636
vn -0.7605 -0.0326 -0.6485
vn -0.5007 -0.5844 -0.6386
vn -0.4775 0.7094 -0.5184
vn -0.2159 -0.9447 -0.2467
vn -0.4435 -0.0756 -0.8931
vn -0.0950 0.9719 -0.2153
vn -0.4635 -0.4472 -0.7650
vn -0.2660 0.7833 -0.5619
vn -0.1889 0.3448 -0.9195
vn -0.0886 -0.4347 -0.8962
vn 0.0745 -0.9470 -0.3125
vn -0.0342 -0.7626 -0.6460
vn 0.4817 0.6333 -0.6058
vn 0.9852 -0.1383 -0.1017
vn 0.4133 -0.6253 0.6619
vn 0.1097 0.2569 0.9602
vn -0.3888 0.7437 0.5438
vn -0.9281 0.2714 0.2549
vn -0.6087 -0.7934 0.0026
vn -0.7212 0.2811 -0.6331
vn -0.4051 0.2951 -0.8653
vn -0.4917 -0.1267 -0.8615
vn -0.1241 0.9657 -0.2279
vn -0.0170 -0.9698 -0.2433
vt 0.741874 0.599249
vt 0.704616 0.531266
vt 0.785227 0.524248
vt 0.734616 0.406655
vt 0.689079 0.342315
vt 0.794392 0.293676
vt 0.734375 0.717281
vt 0.678319 0.660608
vt 0.655388 0.455750
vt 0.659331 0.901110
vt 0.609744 0.781531
vt 0.685473 0.777944
vt 0.641330 0.592355
vt 0.591272 0.533801
vt 0.640625 1.000000
vt 0.479138 0.937500
vt 0.626504 0.341903
vt 0.546046 0.282548
vt 0.689098 0.234520
vt 0.603325 0.667055
vt 0.560034 0.470837
vt 0.543444 0.396147
vt 0.512752 0.812500
vt 0.546915 0.655822
vt 0.488436 0.735126
vt 0.634282 0.154944
vt 0.501208 0.149493
vt 0.509405 0.537235
vt 0.427294 0.845601
vt 0.469690 0.406338
vt 0.453088 0.281661
vt 0.464857 0.646732
vt 0.451782 0.530835
vt 0.593677 0.062500
vt 0.337208 0.091485
vt 0.453125 0.000000
vt 0.383038 0.214491
vt 0.390588 0.718339
vt 0.392101 0.593583
vt 0.389282 0.469165
vt 0.293360 0.875000
vt 0.312669 0.780174
vt 0.312582 0.656006
vt 0.311555 0.530981
vt 0.336748 0.386136
vt 0.390665 0.344178
vt 0.249389 0.485887
vt 0.221054 0.404735
vt 0.296914 0.344178
vt 0.170820 0.841342
vt 0.234338 0.281661
vt 0.296902 0.219059
vt 0.199919 0.148465
vt 0.192754 0.963605
vt 0.172803 0.686634
vt 0.234338 0.718339
vt 0.221054 0.595265
vt 0.079157 0.048815
vt 0.147516 0.523151
vt 0.131538 0.415904
vt 0.176363 0.337227
vt 0.084466 0.292801
vt 0.141642 0.220296
vt 0.055088 0.153620
vt 0.088915 0.640758
vt 0.076782 0.530835
vt 0.046955 0.375390
vt 0.066931 0.793298
vt 0.015664 0.655822
vt 0.000000 0.273040
vt 0.010664 0.538824
vt 0.000000 0.399333
vt 0.031154 0.911618
vt 0.000000 0.784407
vt 0.993268 0.527207
vt 0.951782 0.469165
vt 0.992171 0.399333
vt 1.000000 0.655822
vt 0.945557 0.768646
vt 0.937739 0.656003
vt 0.915655 0.537235
vt 0.906611 0.344360
vt 0.945396 0.911618
vt 0.872374 0.843190
vt 0.949425 0.148089
vt 0.959766 0.278455
vt 0.868449 0.212346
vt 0.859414 0.655822
vt 0.871569 0.414693
vt 0.804501 0.694669
vt 0.790497 0.152675
vt 0.828125 1.000000
vt 0.797630 0.405349
vt 0.770918 0.846073
vt 0.108913 0.719958
vt 0.000000 0.148089
vt 0.858032 0.530836
vt 0.803482 0.029735
s 0
f 5/1/1 7/2/1 84/3/1
f 6/4/2 10/5/2 2/6/2
f 4/7/3 9/8/3 5/1/3
f 7/2/4 13/9/4 6/4/4
f 17/10/5 18/11/5 8/12/5
f 9/8/6 12/13/6 7/2/6
f 13/9/7 12/13/7 19/14/7
f 17/10/8 1/15/8 38/16/8
f 13/9/9 15/17/9 10/5/9
f 15/17/10 25/18/10 11/19/10
f 12/13/11 14/20/11 19/14/11
f 19/14/12 21/21/12 13/9/12
f 21/21/13 22/22/13 15/17/13
f 17/10/14 26/23/14 18/11/14
f 14/20/15 18/11/15 20/24/15
f 26/23/16 28/25/16 18/11/16
f 16/26/17 25/18/17 23/27/17
f 19/14/18 20/24/18 24/28/18
f 17/10/19 38/16/19 33/29/19
f 25/18/20 31/30/20 32/31/20
f 24/28/21 29/32/21 30/33/21
f 27/34/22 23/27/22 46/35/22
f 87/36/23 27/34/23 46/35/23
f 23/27/24 32/31/24 39/37/24
f 33/29/25 34/38/25 28/25/25
f 39/37/26 46/35/26 23/27/26
f 30/33/27 35/39/27 36/40/27
f 30/33/28 36/40/28 31/30/28
f 38/16/29 48/41/29 33/29/29
f 34/38/30 42/42/30 43/43/30
f 34/38/31 43/43/31 35/39/31
f 35/39/32 43/43/32 44/44/32
f 36/40/33 40/45/33 37/46/33
f 33/29/34 48/41/34 42/42/34
f 33/29/35 42/42/35 34/38/35
f 44/44/36 47/47/36 40/45/36
f 47/47/37 51/48/37 45/49/37
f 42/42/38 48/41/38 54/50/38
f 45/49/39 51/48/39 52/51/39
f 45/49/40 52/51/40 41/52/40
f 41/52/41 52/51/41 58/53/41
f 41/52/42 58/53/42 46/35/42
f 48/41/43 1/54/43 54/50/43
f 54/50/44 55/55/44 49/56/44
f 49/56/45 55/55/45 50/57/45
f 58/53/46 87/58/46 46/35/46
f 47/47/47 50/57/47 56/59/47
f 50/57/48 55/55/48 56/59/48
f 56/59/49 60/60/49 51/48/49
f 51/48/50 60/60/50 53/61/50
f 53/61/51 60/60/51 65/62/51
f 57/63/52 66/64/52 58/53/52
f 56/59/53 61/65/53 62/66/53
f 57/63/54 65/62/54 66/64/54
f 62/66/55 64/67/55 60/60/55
f 60/60/56 64/67/56 65/62/56
f 61/65/57 63/68/57 67/69/57
f 64/67/58 76/70/58 65/62/58
f 68/71/59 69/72/59 64/67/59
f 63/68/60 77/73/60 72/74/60
f 64/67/61 69/72/61 76/70/61
f 68/75/62 70/76/62 69/77/62
f 67/78/63 72/79/63 73/80/63
f 68/75/64 73/80/64 74/81/64
f 70/76/65 75/82/65 69/77/65
f 77/83/66 78/84/66 72/79/66
f 71/85/67 76/86/67 82/87/67
f 73/80/68 72/79/68 79/88/68
f 75/82/69 82/87/69 76/86/69
f 75/82/70 81/89/70 2/6/70
f 78/84/71 83/90/71 72/79/71
f 82/87/72 86/91/72 71/85/72
f 82/87/73 2/6/73 86/91/73
f 77/83/74 1/92/74 17/10/74
f 84/3/75 6/4/75 85/93/75
f 83/90/76 3/94/76 4/7/76
f 83/90/77 4/7/77 5/1/77
f 86/91/78 11/19/78 16/26/78
f 14/20/79 8/12/79 18/11/79
f 84/3/80 7/2/80 6/4/80
f 4/7/81 3/94/81 8/12/81
f 2/6/82 10/5/82 11/19/82
f 4/7/83 8/12/83 9/8/83
f 7/2/84 5/1/84 9/8/84
f 6/4/85 13/9/85 10/5/85
f 3/94/86 17/10/86 8/12/86
f 11/19/87 10/5/87 15/17/87
f 7/2/88 12/13/88 13/9/88
f 9/8/89 14/20/89 12/13/89
f 22/22/90 24/28/90 31/30/90
f 13/9/91 21/21/91 15/17/91
f 11/19/92 25/18/92 16/26/92
f 19/14/93 14/20/93 20/24/93
f 27/34/94 16/26/94 23/27/94
f 25/18/95 15/17/95 22/22/95
f 20/24/96 18/11/96 28/25/96
f 21/21/97 19/14/97 24/28/97
f 24/28/98 20/24/98 29/32/98
f 39/37/99 45/49/99 41/52/99
f 17/10/100 33/29/100 26/23/100
f 25/18/101 22/22/101 31/30/101
f 20/24/102 28/25/102 29/32/102
f 23/27/103 25/18/103 32/31/103
f 24/28/104 30/33/104 31/30/104
f 26/23/105 33/29/105 28/25/105
f 32/31/106 31/30/106 37/46/106
f 32/31/107 37/46/107 39/37/107
f 29/32/108 28/25/108 34/38/108
f 29/32/109 34/38/109 35/39/109
f 30/33/110 29/32/110 35/39/110
f 31/30/111 36/40/111 37/46/111
f 37/46/112 40/45/112 39/37/112
f 36/40/113 35/39/113 44/44/113
f 36/40/114 44/44/114 40/45/114
f 38/16/115 1/54/115 48/41/115
f 50/57/116 44/44/116 43/43/116
f 39/37/117 41/52/117 46/35/117
f 40/45/118 47/47/118 45/49/118
f 42/42/119 54/50/119 49/56/119
f 43/43/120 42/42/120 49/56/120
f 43/43/121 49/56/121 50/57/121
f 59/95/122 54/50/122 63/68/122
f 52/51/123 51/48/123 53/61/123
f 52/51/124 53/61/124 57/63/124
f 58/53/125 52/51/125 57/63/125
f 47/47/126 56/59/126 51/48/126
f 67/69/127 62/66/127 61/65/127
f 53/61/128 65/62/128 57/63/128
f 55/55/129 59/95/129 61/65/129
f 56/59/130 55/55/130 61/65/130
f 1/54/131 77/73/131 54/50/131
f 58/53/132 66/64/132 87/58/132
f 56/59/133 62/66/133 60/60/133
f 59/95/134 63/68/134 61/65/134
f 54/50/135 77/73/135 63/68/135
f 62/66/136 68/71/136 64/67/136
f 76/70/137 66/64/137 65/62/137
f 67/69/138 63/68/138 72/74/138
f 79/88/139 74/81/139 73/80/139
f 66/64/140 71/96/140 87/58/140
f 68/75/141 67/78/141 73/80/141
f 70/76/142 68/75/142 74/81/142
f 76/86/143 69/77/143 75/82/143
f 70/76/144 74/81/144 81/89/144
f 70/76/145 81/89/145 75/82/145
f 84/3/146 79/88/146 83/90/146
f 74/81/147 80/97/147 81/89/147
f 75/82/148 2/6/148 82/87/148
f 79/88/149 72/79/149 83/90/149
f 71/85/150 86/91/150 87/98/150
f 85/93/151 80/97/151 84/3/151
f 3/94/152 77/83/152 17/10/152
f 2/6/153 81/89/153 85/93/153
f 78/84/154 3/94/154 83/90/154
f 84/3/155 83/90/155 5/1/155
f 85/93/156 6/4/156 2/6/156
f 27/34/157 86/91/157 16/26/157
f 86/91/158 2/6/158 11/19/158
f 14/20/159 9/8/159 8/12/159
f 22/22/160 21/21/160 24/28/160
f 39/37/161 40/45/161 45/49/161
f 50/57/162 47/47/162 44/44/162
f 59/95/163 55/55/163 54/50/163
f 67/69/164 68/71/164 62/66/164
f 76/70/165 71/96/165 66/64/165
f 79/88/166 80/97/166 74/81/166
f 84/3/167 80/97/167 79/88/167
f 85/93/168 81/89/168 80/97/168
f 3/94/169 78/84/169 77/83/169
f 27/34/170 87/98/170 86/91/170
