# Blender 5.0.1
# www.blender.org
mtllib freakycube.mtl
o cube.001
v -1.000000 1.000000 -1.000000
v 1.000000 1.000000 -1.000000
v 1.000000 -1.000000 -1.000000
v -1.000000 -1.000000 -1.000000
v 1.000000 -1.000000 1.000000
v -1.000000 -1.000000 1.000000
v 1.000000 1.000000 1.000000
v -1.000000 1.000000 1.000000
vn -1.0000 -0.0000 -0.0000
vn -0.0000 -0.0000 -1.0000
vn -0.0000 -1.0000 -0.0000
vn 1.0000 -0.0000 -0.0000
vn -0.0000 1.0000 -0.0000
vn -0.0000 -0.0000 1.0000
vt 1.000000 0.250000
vt 0.750000 0.250000
vt 0.750000 0.000000
vt 1.000000 0.000000
vt 0.000000 0.000000
vt 0.500000 0.000000
vt 0.500000 0.500000
vt 0.000000 0.500000
vt 0.750000 0.500000
vt 1.000000 0.500000
vt 0.750000 0.750000
vt 0.750000 1.000000
vt 1.000000 1.000000
vt 1.000000 0.750000
vt 0.500000 1.000000
vt 0.000000 1.000000
s 1
usemtl Material.001
f 8/1/1 1/2/1 4/3/1 6/4/1
f 3/5/2 4/6/2 1/7/2 2/8/2
f 5/9/3 6/10/3 4/1/3 3/2/3
f 2/11/4 7/12/4 5/13/4 3/14/4
f 2/14/5 1/11/5 8/9/5 7/10/5
f 7/15/6 8/16/6 6/8/6 5/7/6
