# Blender 5.0.1
# www.blender.org
o Plane.003
v 1.111996 1.162570 9.331182
v 1.626088 0.366763 9.330101
v -5.195138 1.749603 9.330125
v 1.110831 1.410370 9.330226
v 2.680433 0.495807 9.330125
v 2.041256 0.380553 9.330110
v 3.023258 0.715514 9.329976
v 3.296106 1.176951 9.330125
v -1.475677 -0.828291 9.351408
v -2.469861 -0.862950 9.330125
v 1.644810 -0.331846 9.330125
v 1.605477 -0.801825 9.330135
v 1.672555 0.062783 9.330022
v 0.336958 1.119936 9.331101
v -0.496586 1.131839 9.331073
v -1.343297 1.028962 9.330535
v -2.450409 0.837399 9.330935
v -3.170425 0.624100 9.330268
v -2.533186 -0.150646 9.330215
v -2.556551 0.452590 9.330738
v 0.760374 -0.880780 9.324757
v -3.116556 0.150840 9.330125
v -4.035839 -0.250846 9.330125
v -3.839524 0.295449 9.329094
v -4.830198 -0.235825 9.330125
v -4.634892 0.182866 9.330125
v -4.962896 0.542338 9.330125
v -5.329364 0.317764 9.330125
v -5.474426 1.322433 9.649461
v -5.006226 1.335710 9.330125
v 0.097353 -0.881434 9.320342
v -0.624567 -0.871235 9.396316
v 2.680433 0.495807 9.330125
v 2.680433 0.495807 9.330125
v 2.680433 0.495807 9.330125
v -2.484961 -0.843334 9.772541
v -1.961637 -2.467525 10.045607
v -1.408343 -0.826913 9.960262
v -1.557070 -1.303514 10.559839
v -2.728724 -1.046399 10.636045
v -2.642111 -1.099438 9.898380
v -1.519755 -1.341141 9.884624
v -2.652774 -1.968194 10.680758
v -3.120925 -1.316001 10.562721
v -3.004064 -1.377034 9.956047
v -2.648770 -1.990601 9.831177
v -2.847742 -2.531739 10.547085
v -3.213011 -2.503815 10.547085
v -3.213011 -2.503815 10.015102
v -2.847742 -2.531739 10.015102
v -2.748582 -2.975815 10.547085
v -3.213933 -2.975815 10.547085
v -3.213933 -2.975815 10.015102
v -2.748582 -2.975815 10.015102
v -1.961637 -2.467525 10.474347
v -0.584369 -0.760221 10.004252
v -1.386362 -0.789981 10.543242
v -0.414403 0.807922 9.893044
v -1.198948 0.804363 9.951241
v -2.405209 -0.847982 10.583060
v -1.948675 0.758028 9.867224
v 0.176613 -0.776275 10.053336
v 0.468230 0.843396 10.050531
v 1.193093 1.085639 9.867594
v 1.440597 -0.850385 10.506906
v -0.537721 0.399273 10.239761
v -0.399135 -0.298690 10.407669
v -2.039616 0.556375 10.173844
v -2.454515 -0.148119 10.534828
v -1.420946 0.489316 10.148240
v -1.372091 -0.196297 10.402399
v 0.331009 0.237993 10.303413
v 0.746508 -0.236994 10.554594
v 1.194006 0.426678 10.330012
v 1.336393 -0.274286 10.490331
v 1.600656 0.083512 10.051536
v 1.545563 -0.337889 10.295579
v 1.408372 0.243206 10.192530
v 1.161192 1.401600 9.703037
v 2.052321 0.439919 9.752364
v 1.430430 0.838640 10.003679
v -2.580971 -0.157685 9.826852
v -2.534170 0.458933 9.911730
v -2.270256 0.967804 9.533327
v -1.245951 0.927992 9.625302
v -0.466869 1.096684 9.540066
v 0.463713 1.078481 9.620935
v 1.666105 0.063730 9.670879
v 1.644761 -0.331748 9.771439
v 1.605478 -0.801808 9.982072
v -0.081198 -0.780427 9.698155
v -0.732401 -0.760744 9.708012
v 0.734351 -0.887251 9.734819
v 0.754774 -0.851059 10.542341
v 1.427906 -1.629502 10.587765
v 1.427906 -1.629502 9.971522
v 0.664709 -1.627476 9.971522
v 0.664709 -1.627476 10.586800
v 1.111296 -2.544515 10.586800
v 1.111296 -2.544515 9.971522
v 0.658814 -2.339650 9.971522
v 0.658814 -2.339650 10.586800
v 1.295679 -2.975815 10.586800
v 1.295679 -2.975815 9.971522
v 0.763289 -2.975815 9.971522
v 0.763289 -2.975815 10.586800
v 1.853869 -2.313649 10.586800
v 1.853869 -2.313649 9.971522
v 1.834984 -2.975815 10.586800
v 1.834984 -2.975815 9.971522
v -1.959795 -2.968995 10.474347
v -1.959795 -2.968995 10.045607
v -3.121995 0.167409 9.681870
v -3.306380 0.643562 9.504707
v -4.035878 -0.250855 9.614196
v -3.973197 0.223163 9.501769
v -4.829598 -0.236089 9.614196
v -4.489429 0.256984 9.568480
v -5.329342 0.317037 9.614196
v -4.962666 0.542469 9.614196
v -4.940667 1.325431 9.649461
v 1.441441 -2.205036 9.971522
v 1.441441 -2.205036 10.586800
v 1.652505 0.418379 9.865326
v 1.606748 2.127961 9.755354
v 2.052640 2.244510 9.732630
v 2.450464 1.954147 9.592597
v 2.665167 1.585461 9.593893
v 2.869790 1.233063 9.643355
v 2.618990 0.557794 9.616931
v 1.448881 1.906531 9.786712
v 1.308996 1.392065 9.965574
v 1.591435 1.281412 10.191920
v 1.330798 1.095659 10.000250
v 2.107826 0.574085 9.990516
v 1.721135 0.633250 9.923456
v 1.394830 1.716096 9.981079
v 1.665268 1.581230 10.195527
v 2.466479 1.824910 9.845543
v 2.296674 1.695126 9.999561
v 2.610258 1.509341 9.830676
v 2.372595 1.458168 10.090243
v 2.820576 1.141249 9.888987
v 2.350606 1.206319 10.185795
v 2.557939 0.728038 9.812233
v 2.354360 0.848079 10.155534
v 1.994727 0.811333 10.206838
v 1.588059 0.912192 10.125001
v 2.010780 1.559243 10.186216
v 1.985634 1.148791 10.168850
v 3.077883 1.120224 9.583647
v 2.909756 0.727969 9.539090
v 3.014622 1.043497 9.631711
v 2.810772 0.731047 9.684479
v 1.652639 2.499370 10.495573
v 2.126781 2.034265 9.959165
v 2.071383 1.837796 10.149727
v 1.703697 2.097053 9.994772
v 1.708884 1.821470 10.199491
v -5.474530 1.333025 9.330125
v 1.634328 2.422585 10.249353
v 1.809144 2.465592 10.231456
v 1.784307 2.265900 10.473601
v 1.654356 2.264933 10.448719
v 1.574121 2.382209 10.297295
v 1.554312 2.314804 10.371138
v 1.674932 2.389518 10.309026
v -5.474426 1.322433 9.010788
v -2.484896 -0.843461 8.859033
v -1.961637 -2.467525 8.614642
v -1.392641 -0.825875 8.706069
v -1.557397 -1.303156 8.100192
v -2.724978 -1.050123 8.029912
v -2.638446 -1.088512 8.934398
v -1.520161 -1.340658 8.740149
v -2.652774 -1.968194 7.979492
v -3.120925 -1.316001 8.097528
v -3.007092 -1.360625 8.679060
v -2.648319 -1.984458 8.829698
v -2.847742 -2.531739 8.113165
v -3.213011 -2.503815 8.113165
v -3.213011 -2.503815 8.645147
v -2.847742 -2.531739 8.645147
v -2.748583 -2.975816 8.113165
v -3.213934 -2.975816 8.113165
v -3.213934 -2.975816 8.645147
v -2.748583 -2.975816 8.645147
v -1.961637 -2.467525 8.185902
v -0.524328 -0.763365 8.649691
v -1.386776 -0.789186 8.117048
v -0.413893 0.807410 8.766855
v -1.198920 0.803977 8.707398
v -2.404349 -0.847808 8.077763
v -1.947699 0.756878 8.787445
v 0.177335 -0.783159 8.580890
v 0.468714 0.842593 8.609868
v 1.193635 1.084328 8.794425
v 1.440718 -0.850489 8.144692
v -0.537622 0.399109 8.418234
v -0.398692 -0.297985 8.242048
v -2.039591 0.556216 8.486444
v -2.455106 -0.147885 8.124592
v -1.420918 0.489204 8.511848
v -1.371939 -0.196459 8.258196
v 0.330877 0.236899 8.356583
v 0.746895 -0.237064 8.104309
v 1.194018 0.426497 8.330537
v 1.336681 -0.274478 8.169796
v 1.600914 0.083304 8.607983
v 1.545748 -0.338100 8.363907
v 1.408890 0.243025 8.467112
v 1.161516 1.400927 8.957127
v 2.052528 0.439825 8.907838
v 1.430346 0.838715 8.655542
v -2.580951 -0.157704 8.833460
v -2.534310 0.459024 8.748568
v -2.269539 0.967808 9.125640
v -1.245396 0.925108 9.035114
v -0.466418 1.096628 9.118612
v 0.464613 1.077363 9.040450
v 1.666223 0.063585 8.989271
v 1.644839 -0.331865 8.888765
v 1.605522 -0.801917 8.678218
v 0.036950 -0.783512 8.852933
v -0.602671 -0.780814 8.961387
v 0.747613 -0.884382 8.829110
v 0.753173 -0.850901 8.100445
v 1.427906 -1.629502 8.072485
v 1.427906 -1.629502 8.688727
v 0.664709 -1.627476 8.688727
v 0.664709 -1.627476 8.073450
v 1.111296 -2.544515 8.073450
v 1.111296 -2.544515 8.688727
v 0.658813 -2.339650 8.688727
v 0.658814 -2.339650 8.073450
v 1.295679 -2.975815 8.073450
v 1.295679 -2.975815 8.688727
v 0.763288 -2.975815 8.688727
v 0.763289 -2.975815 8.073450
v 1.853869 -2.313649 8.073450
v 1.853869 -2.313649 8.688727
v 1.834984 -2.975815 8.073450
v 1.834984 -2.975815 8.688727
v -1.959795 -2.968995 8.185902
v -1.959795 -2.968995 8.614642
v -3.121921 0.167021 8.977876
v -3.306163 0.643250 9.155094
v -4.035878 -0.250855 9.046054
v -3.972612 0.222975 9.158003
v -4.829598 -0.236089 9.046054
v -4.489429 0.256984 9.091770
v -5.329342 0.317037 9.046054
v -4.962666 0.542469 9.046054
v -4.940667 1.325431 9.010788
v 1.441441 -2.205036 8.688727
v 1.441441 -2.205036 8.073450
v 1.652628 0.418167 8.795053
v 1.606726 2.127836 8.904910
v 2.052324 2.243430 8.927750
v 2.407491 1.934501 9.005067
v 2.622208 1.642944 9.056939
v 2.871325 1.233980 9.016197
v 2.619798 0.557397 9.043106
v 1.448329 1.906666 8.873582
v 1.310755 1.389593 8.697522
v 1.591394 1.281251 8.468179
v 1.334452 1.093783 8.665895
v 2.107974 0.574005 8.669648
v 1.721313 0.633080 8.736815
v 1.394860 1.715927 8.679273
v 1.665279 1.581101 8.464734
v 2.438932 1.836908 8.815022
v 2.285696 1.700786 8.668057
v 2.590809 1.533563 8.835546
v 2.363945 1.461423 8.579640
v 2.821140 1.141204 8.770735
v 2.347469 1.207081 8.481933
v 2.558232 0.728008 8.848157
v 2.350696 0.852874 8.513474
v 1.994880 0.811227 8.453269
v 1.588151 0.912159 8.534895
v 2.008723 1.559102 8.477721
v 1.985019 1.148853 8.493921
v 3.076325 1.118958 9.077006
v 2.932897 0.717130 9.114848
v 3.014756 1.043510 9.028424
v 2.814472 0.729097 8.974890
v 1.653155 2.502555 8.167281
v 2.120549 2.032048 8.705249
v 2.061386 1.832405 8.518569
v 1.703273 2.096734 8.665680
v 1.708764 1.821255 8.461085
v 1.631595 2.435900 8.413542
v 1.817957 2.481261 8.428582
v 1.771900 2.265976 8.206429
v 1.654922 2.266924 8.232800
v 1.574040 2.382069 8.362966
v 1.562828 2.314599 8.294240
v 1.674849 2.389404 8.351220
v 1.754138 2.778551 7.806884
vn -0.7336 0.6796 -0.0010
vn 0.7949 -0.6068 0.0002
vn 0.0496 0.9988 -0.0000
vn -0.9648 0.2631 -0.0004
vn 0.3764 -0.9264 0.0117
vn 0.1229 -0.9924 0.0003
vn 0.7711 -0.6356 0.0377
vn 0.9398 0.3418 -0.0006
vn 0.0281 -0.9996 0.0041
vn -0.6447 -0.7645 -0.0000
vn 0.9974 -0.0723 0.0001
vn 0.7115 -0.7027 -0.0003
vn 0.9992 0.0405 0.0002
vn -0.0148 0.9999 -0.0013
vn -0.0588 0.9983 0.0012
vn -0.0740 0.9973 -0.0032
vn -0.2590 0.9659 -0.0028
vn -0.3345 0.9424 -0.0015
vn -0.9970 -0.0775 -0.0005
vn -0.5190 -0.8548 0.0002
vn 0.0484 -0.9988 -0.0033
vn 0.4427 -0.8967 0.0005
vn 0.1953 -0.9807 -0.0000
vn -0.4250 0.9052 -0.0012
vn -0.4155 -0.9096 -0.0000
vn 0.3611 0.9325 -0.0000
vn 0.9222 0.3868 -0.0000
vn -0.9057 -0.4240 -0.0000
vn -0.6893 0.2670 0.6735
vn 0.9752 0.2214 -0.0000
vn -0.0632 -0.9980 0.0069
vn -0.0358 -0.9971 0.0668
vn -0.8444 -0.3776 -0.3801
vn 0.5657 0.6032 -0.5622
vn 0.4120 -0.8850 -0.2169
vn 0.6289 -0.4358 0.6439
vn -0.4068 0.5955 0.6927
vn -0.5546 0.3330 -0.7625
vn 0.6673 -0.4463 -0.5963
vn 0.3515 -0.3908 0.8507
vn -0.7731 0.4260 0.4699
vn -0.6787 0.3712 -0.6337
vn 0.3073 -0.4205 -0.8537
vn 0.3117 0.0962 0.9453
vn -0.7386 -0.0138 0.6740
vn -0.7482 -0.0183 -0.6632
vn 0.3143 0.0637 -0.9472
vn 0.0373 -0.6953 0.7178
vn -0.5780 -0.5768 0.5773
vn -0.5780 -0.5768 -0.5772
vn 0.0173 -0.7027 -0.7113
vn 0.5778 0.6068 0.5459
vn 0.1053 -0.9434 0.3145
vn 0.3933 -0.2629 0.8810
vn -0.0658 0.7428 0.6663
vn -0.0400 0.7840 0.6194
vn -0.3814 0.3412 0.8591
vn -0.1242 0.8018 0.5846
vn -0.1797 -0.8839 0.4318
vn -0.0965 0.6758 0.7307
vn -0.5396 0.4750 0.6951
vn 0.6398 -0.0054 0.7686
vn -0.0252 0.4342 0.9005
vn 0.0412 -0.1881 0.9813
vn -0.1385 0.6817 0.7184
vn -0.5819 0.1969 0.7891
vn -0.0177 0.4948 0.8688
vn 0.0383 0.2704 0.9620
vn -0.0797 0.3644 0.9278
vn -0.1107 0.0867 0.9901
vn 0.2738 0.3845 0.8816
vn 0.4163 0.1795 0.8913
vn 0.8904 0.1272 0.4371
vn 0.8732 0.1034 0.4763
vn 0.6935 0.2531 0.6745
vn -0.9394 0.2280 0.2561
vn 0.1556 -0.9173 0.3665
vn -0.0538 -0.0004 0.9986
vn -0.9969 -0.0561 0.0546
vn -0.6561 0.3679 0.6589
vn -0.2128 0.9623 0.1692
vn -0.0678 0.9158 0.3958
vn -0.0623 0.9109 0.4080
vn -0.0807 0.9430 0.3230
vn 0.9983 0.0033 0.0581
vn 0.9954 -0.0424 0.0861
vn 0.9380 -0.3412 -0.0603
vn -0.0522 -0.9869 0.1527
vn 0.0096 -0.9915 0.1295
vn -0.2231 -0.9399 -0.2584
vn -0.4871 -0.1086 0.8666
vn 0.7234 -0.1003 0.6831
vn 0.7433 -0.2156 -0.6333
vn -0.7559 -0.0520 -0.6527
vn -0.7110 0.0626 0.7004
vn 0.0609 0.0985 0.9933
vn 0.0609 0.0988 -0.9932
vn -0.7232 -0.0560 -0.6884
vn -0.7234 -0.0562 0.6882
vn -0.0000 -0.7071 0.7071
vn -0.0000 -0.7071 -0.7071
vn -0.5243 -0.6175 -0.5864
vn -0.5243 -0.6174 0.5864
vn 0.6463 0.4836 0.5903
vn 0.6462 0.4836 -0.5904
vn 0.5683 -0.5848 0.5788
vn 0.5683 -0.5847 -0.5788
vn 0.6042 -0.5785 0.5480
vn 0.5908 -0.5756 -0.5653
vn 0.1347 -0.6060 0.7840
vn -0.4420 0.8260 0.3498
vn 0.1497 -0.6830 0.7149
vn -0.1634 0.6891 0.7060
vn -0.3082 -0.6999 0.6444
vn 0.2153 0.7899 0.5742
vn -0.6897 -0.3332 0.6429
vn 0.5621 0.2272 0.7953
vn 0.7250 0.2953 0.6222
vn -0.2122 0.7640 -0.6093
vn -0.2122 0.7640 0.6093
vn 0.7226 -0.2747 0.6343
vn -0.5988 0.7727 -0.2107
vn 0.2967 0.9323 0.2068
vn 0.7336 0.6687 0.1207
vn 0.8586 0.4919 0.1445
vn 0.7162 0.6269 0.3068
vn 0.3600 -0.8228 0.4398
vn -0.8800 0.4750 -0.0063
vn -0.7390 0.1336 0.6603
vn -0.3103 -0.0311 0.9501
vn -0.6289 -0.1032 0.7706
vn 0.1251 -0.8011 0.5853
vn -0.0579 -0.5343 0.8433
vn -0.8643 0.1795 0.4699
vn -0.3249 -0.1339 0.9362
vn 0.6906 0.4830 0.5384
vn 0.5316 0.3233 0.7829
vn 0.7349 0.4368 0.5187
vn 0.4807 0.3765 0.7920
vn 0.7528 0.0572 0.6558
vn 0.2964 0.0685 0.9526
vn 0.4735 -0.6060 0.6392
vn 0.3779 -0.3846 0.8422
vn -0.0611 -0.3353 0.9401
vn -0.3203 -0.3417 0.8835
vn 0.2184 0.0530 0.9744
vn -0.0159 -0.0201 0.9997
vn 0.6880 0.1358 0.7129
vn 0.6763 -0.6030 0.4231
vn 0.7353 -0.1462 0.6618
vn 0.5520 -0.4828 0.6798
vn -0.0361 0.7548 0.6549
vn 0.4297 0.6477 0.6291
vn 0.3813 0.3464 0.8571
vn 0.7942 0.1463 0.5898
vn 0.7685 0.6392 0.0281
vn -0.9734 0.2292 -0.0000
vn -0.4755 0.8105 -0.3422
vn 0.7352 0.6467 0.2031
vn 0.7460 0.0501 0.6641
vn -0.4328 -0.2552 0.8646
vn -0.8406 0.5295 -0.1141
vn -0.9058 0.0667 0.4184
vn 0.9711 -0.1395 0.1939
vn -0.6893 0.2670 -0.6735
vn -0.8912 -0.1131 0.4393
vn 0.5657 0.6032 0.5622
vn 0.3708 -0.9063 0.2030
vn 0.6234 -0.4369 -0.6485
vn -0.4137 0.5922 -0.6915
vn -0.4260 0.3483 0.8350
vn 0.6872 -0.4623 0.5604
vn 0.3529 -0.3892 -0.8509
vn -0.7651 0.4417 -0.4685
vn -0.7735 0.3701 0.5145
vn 0.2754 -0.4682 0.8396
vn 0.3117 0.0962 -0.9453
vn -0.7386 -0.0138 -0.6740
vn -0.7475 -0.0156 0.6641
vn 0.3141 0.0651 0.9472
vn 0.0373 -0.6953 -0.7178
vn -0.5780 -0.5768 -0.5773
vn -0.5780 -0.5768 0.5772
vn 0.0173 -0.7027 0.7113
vn 0.5778 0.6068 -0.5459
vn 0.0923 -0.9326 -0.3490
vn 0.3848 -0.2574 -0.8864
vn -0.0654 0.7436 -0.6654
vn -0.0395 0.7863 -0.6166
vn -0.3869 0.3302 -0.8610
vn -0.1235 0.8022 -0.5841
vn -0.1831 -0.8828 -0.4325
vn -0.0955 0.6768 -0.7299
vn -0.5314 0.4782 -0.6992
vn 0.6433 -0.0023 -0.7656
vn -0.0259 0.4384 -0.8984
vn 0.0388 -0.1721 -0.9843
vn -0.1389 0.6802 -0.7197
vn -0.5811 0.1972 -0.7896
vn -0.0182 0.4925 -0.8701
vn 0.0342 0.2717 -0.9618
vn -0.0764 0.3684 -0.9265
vn -0.1062 0.1015 -0.9892
vn 0.2723 0.3856 -0.8816
vn 0.4186 0.1881 -0.8885
vn 0.8906 0.1274 -0.4366
vn 0.8738 0.1055 -0.4747
vn 0.6927 0.2535 -0.6752
vn -0.9388 0.2257 -0.2602
vn 0.1555 -0.9173 -0.3665
vn -0.0577 0.0109 -0.9983
vn -0.9971 -0.0551 -0.0524
vn -0.6564 0.3672 -0.6590
vn -0.2127 0.9620 -0.1714
vn -0.0676 0.9157 -0.3961
vn -0.0627 0.9104 -0.4089
vn -0.0799 0.9427 -0.3239
vn 0.9983 0.0033 -0.0578
vn 0.9954 -0.0426 -0.0858
vn 0.9303 -0.3604 0.0686
vn -0.0766 -0.9905 -0.1145
vn 0.0034 -0.9935 -0.1140
vn -0.2702 -0.9185 0.2888
vn -0.4789 -0.1058 -0.8714
vn 0.7250 -0.1065 -0.6805
vn 0.7343 -0.1920 0.6511
vn -0.7401 -0.0137 0.6723
vn -0.7135 0.0547 -0.6985
vn 0.0609 0.0985 -0.9933
vn 0.0609 0.0988 0.9932
vn -0.7232 -0.0560 0.6884
vn -0.7234 -0.0562 -0.6882
vn -0.5243 -0.6175 0.5864
vn -0.5243 -0.6174 -0.5864
vn 0.6463 0.4836 -0.5903
vn 0.6462 0.4836 0.5904
vn 0.5683 -0.5848 -0.5788
vn 0.5683 -0.5847 0.5788
vn 0.6042 -0.5785 -0.5480
vn 0.5908 -0.5756 0.5653
vn 0.1349 -0.6063 -0.7837
vn -0.4422 0.8254 -0.3509
vn 0.1495 -0.6832 -0.7147
vn -0.1636 0.6876 -0.7075
vn -0.3082 -0.6999 -0.6444
vn 0.2154 0.7900 -0.5740
vn -0.6897 -0.3332 -0.6429
vn 0.5621 0.2272 -0.7953
vn 0.7250 0.2953 -0.6222
vn 0.7235 -0.2750 -0.6332
vn -0.6002 0.7705 0.2149
vn 0.3181 0.9249 -0.2081
vn 0.7174 0.6749 -0.1726
vn 0.8396 0.5185 -0.1621
vn 0.7137 0.6288 -0.3086
vn 0.3406 -0.8278 -0.4458
vn -0.8798 0.4754 0.0028
vn -0.7379 0.1259 -0.6630
vn -0.3139 -0.0317 -0.9489
vn -0.6248 -0.0952 -0.7749
vn 0.1303 -0.7968 -0.5900
vn -0.0568 -0.5347 -0.8431
vn -0.8623 0.1793 -0.4737
vn -0.3184 -0.1264 -0.9395
vn 0.6852 0.5083 -0.5216
vn 0.5341 0.3239 -0.7809
vn 0.7229 0.4496 -0.5247
vn 0.4798 0.3808 -0.7904
vn 0.7458 0.0600 -0.6635
vn 0.2983 0.0720 -0.9518
vn 0.4677 -0.6006 -0.6485
vn 0.3805 -0.3745 -0.8456
vn -0.0484 -0.3312 -0.9423
vn -0.3238 -0.3371 -0.8840
vn 0.2305 0.0632 -0.9710
vn -0.0050 -0.0172 -0.9998
vn 0.6928 0.1379 -0.7078
vn 0.6851 -0.5904 -0.4266
vn 0.7191 -0.1135 -0.6856
vn 0.5158 -0.4609 -0.7222
vn -0.0335 0.7043 -0.7091
vn 0.4385 0.6358 -0.6352
vn 0.3869 0.3450 -0.8552
vn 0.7942 0.1403 -0.5912
vn 0.7668 0.6419 -0.0057
vn -0.5216 0.7902 0.3219
vn 0.7388 0.6482 -0.1843
vn 0.7399 0.0279 -0.6722
vn -0.4272 -0.2726 -0.8621
vn -0.8866 0.4582 0.0630
vn -0.8891 0.0229 -0.4572
vn 0.9711 -0.1349 -0.1970
vt 0.548000 0.075813
vt 0.486057 0.122959
vt 0.516282 0.055576
vt 0.897825 0.378398
vt 0.970415 0.340376
vt 0.970415 0.375900
vt 0.805051 0.631175
vt 0.729735 0.631175
vt 0.743267 0.604115
vt 0.674980 0.771095
vt 0.746129 0.759016
vt 0.725074 0.832137
vt 0.373524 0.042494
vt 0.385100 0.121440
vt 0.340347 0.120304
vt 0.762139 0.757603
vt 0.767009 0.833747
vt 0.747489 0.864294
vt 0.786617 0.864787
vt 0.641352 0.754935
vt 0.726832 0.744584
vt 0.964595 0.864787
vt 0.905694 0.902070
vt 0.903172 0.864787
vt 0.913603 0.634970
vt 0.811488 0.700565
vt 0.813950 0.644586
vt 0.398354 0.022755
vt 0.468161 0.054532
vt 0.603906 0.792163
vt 0.642948 0.833362
vt 0.603990 0.842473
vt 0.899262 0.940154
vt 0.801205 0.985504
vt 0.806627 0.935216
vt 0.701174 0.814663
vt 0.638570 0.778055
vt 0.524281 0.026344
vt 0.429621 0.000000
vt 0.916609 0.095272
vt 0.954370 0.139348
vt 0.916525 0.139348
vt 0.560952 0.039574
vt 0.604688 0.763347
vt 0.938339 0.940157
vt 0.899262 0.984232
vt 0.852341 0.101293
vt 0.551608 0.443413
vt 0.639714 0.432652
vt 0.573901 0.477237
vt 0.292741 0.105048
vt 0.221989 0.153660
vt 0.158010 0.219971
vt 0.184083 0.152644
vt 0.172376 0.287511
vt 0.210835 0.225692
vt 0.179565 0.309731
vt 0.156577 0.324652
vt 0.131226 0.295157
vt 0.117577 0.270065
vt 0.224105 0.317940
vt 0.221678 0.336525
vt 0.238138 0.270786
vt 0.291898 0.242900
vt 0.273651 0.183688
vt 0.311444 0.183313
vt 0.230430 0.034608
vt 0.238857 0.082579
vt 0.206658 0.091497
vt 0.251055 0.032437
vt 0.381417 0.496478
vt 0.378581 0.541752
vt 0.360653 0.511923
vt 0.363755 0.471411
vt 0.348762 0.484497
vt 0.350614 0.451253
vt 0.322682 0.471524
vt 0.833575 0.389243
vt 0.783651 0.385453
vt 0.809658 0.363580
vt 0.626403 0.242670
vt 0.657177 0.262348
vt 0.612736 0.268913
vt -0.000000 0.874739
vt 0.060804 0.861212
vt 0.060955 0.897014
vt 0.133719 0.892307
vt 0.135626 0.863145
vt 0.200408 0.877730
vt 0.195970 0.904377
vt 0.257630 0.904508
vt 0.282517 0.879585
vt 0.925234 0.081961
vt 0.873820 0.095272
vt 0.906512 0.061465
vt 0.607904 0.685434
vt 0.659526 0.634970
vt 0.666542 0.685872
vt 0.671050 0.742905
vt 0.603907 0.743536
vt 0.753868 0.259202
vt 0.824230 0.209622
vt 0.808516 0.254255
vt 0.175870 0.904508
vt 0.114708 0.955402
vt 0.111762 0.904508
vt 0.266064 0.342247
vt 0.285486 0.288767
vt 0.864988 0.259202
vt 0.327547 0.363007
vt 0.921478 0.630105
vt 0.874549 0.630105
vt 0.883858 0.604115
vt 0.890489 0.234056
vt 0.917670 0.257202
vt 0.055859 0.958803
vt 0.000000 0.910986
vt 0.052913 0.907908
vt 0.404082 0.323130
vt 0.407393 0.364141
vt 0.883330 0.198172
vt 0.560609 0.753773
vt 0.603809 0.804751
vt 0.560512 0.804751
vt 0.516750 0.753773
vt 0.450565 0.349195
vt 0.435747 0.390654
vt 0.880118 0.153241
vt 0.939511 0.194509
vt 0.887277 0.189125
vt 0.928520 0.226058
vt 0.870241 0.212550
vt 0.420736 0.432652
vt 0.368800 0.415462
vt 0.572840 0.855728
vt 0.603907 0.906749
vt 0.572840 0.906708
vt 0.655286 0.855676
vt 0.616327 0.864787
vt 0.640833 0.083665
vt 0.709173 0.097002
vt 0.703738 0.136938
vt 0.601496 0.049074
vt 0.665716 0.048594
vt 0.751182 0.106218
vt 0.767489 0.153241
vt 0.795101 0.093966
vt 0.852273 0.042265
vt 0.819651 0.119598
vt 0.352696 0.930913
vt 0.386055 0.930967
vt 0.386932 0.957426
vt 0.809496 0.031271
vt 0.837547 0.000000
vt 0.641959 0.480986
vt 0.585883 0.501790
vt 0.533234 0.502585
vt 0.512279 0.473139
vt 0.468610 0.499589
vt 0.466552 0.432652
vt 0.539598 0.855778
vt 0.539598 0.906758
vt 0.710067 0.310223
vt 0.711747 0.336578
vt 0.693824 0.306301
vt 0.601472 0.290098
vt 0.601770 0.268503
vt 0.863118 0.349840
vt 0.880841 0.342427
vt 0.871871 0.363807
vt 0.138445 0.323791
vt 0.018664 0.315804
vt 0.012971 0.344217
vt 0.002610 0.304691
vt 0.603444 0.217337
vt 0.619580 0.201763
vt 0.142882 0.355473
vt 0.044944 0.368580
vt 0.057686 0.397062
vt 0.035630 0.371324
vt 0.604675 0.243897
vt 0.850890 0.329006
vt 0.093859 0.294730
vt 0.114017 0.280163
vt 0.122089 0.305045
vt 0.750150 0.596112
vt 0.729735 0.593132
vt 0.751632 0.581195
vt 0.040585 0.338488
vt 0.036969 0.316534
vt 0.024563 0.348452
vt 0.057588 0.350844
vt 0.068130 0.395182
vt 0.105979 0.366448
vt 0.078510 0.355982
vt 0.878998 0.395116
vt 0.851404 0.400172
vt 0.858887 0.417558
vt 0.824524 0.415598
vt 0.060571 0.319571
vt 0.014287 0.281276
vt -0.000000 0.264386
vt 0.017782 0.271248
vt 0.068555 0.292021
vt 0.091337 0.270202
vt 0.093001 0.329225
vt 0.746184 0.601752
vt 0.571224 0.168226
vt 0.560952 0.153241
vt 0.577354 0.162716
vt 0.106913 0.386573
vt 0.068280 0.413713
vt 0.894673 0.325410
vt 0.879222 0.328042
vt 0.897023 0.318311
vt 0.874996 0.308940
vt 0.016081 0.262252
vt 0.025847 0.280995
vt 0.048720 0.288636
vt 0.836428 0.624801
vt 0.849677 0.604115
vt 0.860049 0.613067
vt 0.951297 0.736679
vt 0.959455 0.720333
vt 0.972006 0.729118
vt 0.764748 0.452034
vt 0.729735 0.438102
vt 0.776052 0.432652
vt 0.396322 0.532996
vt 0.396465 0.478981
vt 0.707661 0.635622
vt 0.748852 0.685880
vt 0.707701 0.685445
vt 0.338107 0.525358
vt 0.345267 0.561590
vt 0.647324 0.531437
vt 0.578797 0.527702
vt 0.520232 0.533963
vt 0.729735 0.496617
vt 0.466302 0.533557
vt 0.736569 0.936884
vt 0.655753 0.913146
vt 0.736571 0.913348
vt 0.854288 0.495981
vt 0.822333 0.474679
vt 0.862252 0.473788
vt 0.801203 0.913227
vt 0.801200 0.936763
vt 0.746740 0.742922
vt 0.707709 0.744584
vt 0.809228 0.505823
vt 0.815781 0.490251
vt 0.736573 0.889812
vt 0.209018 0.854162
vt 0.286329 0.846021
vt 0.301573 0.864885
vt 0.072881 0.838445
vt 0.139592 0.828450
vt 0.139300 0.846145
vt 0.656016 0.942317
vt 0.605763 0.912928
vt 0.375579 0.858755
vt 0.363370 0.871947
vt 0.010075 0.831180
vt 0.679429 0.345274
vt 0.657286 0.241827
vt 0.695239 0.201852
vt 0.859707 0.565976
vt 0.791138 0.604115
vt 0.793017 0.565933
vt 0.697712 0.379984
vt 0.731442 0.364304
vt 0.331763 0.494939
vt 0.585706 0.229334
vt 0.036201 0.247273
vt 0.090468 0.258017
vt 0.082485 0.285567
vt 0.929869 0.705379
vt 0.874549 0.607455
vt 0.622232 0.183931
vt 0.099841 0.725860
vt 0.057754 0.767485
vt 0.042544 0.733291
vt 0.897825 0.378398
vt 0.970415 0.416479
vt 0.897825 0.422477
vt 0.793795 0.843404
vt 0.861624 0.862899
vt 0.786617 0.862899
vt 0.443557 0.658238
vt 0.514727 0.675823
vt 0.440194 0.753773
vt 0.033819 0.604456
vt 0.096728 0.638609
vt 0.015643 0.621602
vt 0.420320 0.665894
vt 0.396178 0.753773
vt 0.128148 0.583342
vt 0.097664 0.598434
vt 0.566077 0.641546
vt 0.561101 0.671441
vt 0.886676 0.705379
vt 0.835500 0.738527
vt 0.811488 0.705379
vt 0.801205 0.871717
vt 0.903172 0.935216
vt 0.803560 0.924707
vt 0.036285 0.693868
vt -0.000000 0.640155
vt 0.594717 0.688338
vt 0.538227 0.741413
vt 0.852273 0.000000
vt 0.950330 0.045398
vt 0.856327 0.048164
vt 0.069728 0.717105
vt 0.019347 0.731250
vt 1.000000 0.290243
vt 0.962070 0.334320
vt 0.962155 0.290243
vt 0.028928 0.767626
vt 0.603907 0.650967
vt 0.950329 0.001320
vt 0.989407 0.045402
vt 0.897825 0.328287
vt 0.155230 0.556475
vt 0.093693 0.548455
vt 0.018779 0.549106
vt 0.141393 0.497433
vt 0.204469 0.457118
vt 0.195355 0.511546
vt 0.243621 0.497464
vt 0.267656 0.507383
vt 0.295936 0.483833
vt 0.290011 0.515348
vt 0.266451 0.455735
vt 0.258557 0.556334
vt 0.282726 0.555268
vt 0.217912 0.555623
vt 0.551086 0.622841
vt 0.512007 0.595141
vt 0.568772 0.589465
vt 0.089621 0.487909
vt 0.065585 0.459022
vt 0.106938 0.457633
vt 0.048625 0.483687
vt 0.158535 0.455321
vt 0.311960 0.581432
vt 0.275480 0.601458
vt 0.315556 0.538788
vt 0.313943 0.505247
vt 0.788633 0.335611
vt 0.757473 0.349599
vt 0.688207 0.242811
vt 0.701656 0.269144
vt 0.066264 0.813426
vt 0.010170 0.786403
vt 0.074609 0.778429
vt 0.144380 0.799605
vt 0.206023 0.829151
vt 0.207783 0.801995
vt 0.267825 0.815623
vt 0.320896 0.818471
vt 0.281936 0.792110
vt 0.332349 0.767626
vt 0.807608 0.685430
vt 0.811488 0.743541
vt 0.794423 0.750619
vt 0.855040 0.807898
vt 0.786617 0.822304
vt 0.176809 0.904507
vt 0.238539 0.956139
vt 0.176809 0.964946
vt 0.230637 0.603045
vt 0.963530 0.665952
vt 0.913603 0.675566
vt 0.913603 0.634970
vt 0.913695 0.744584
vt 0.854873 0.744782
vt 0.286902 0.663696
vt 0.318392 0.644946
vt 0.966239 0.753483
vt 0.930616 0.782087
vt 0.352696 0.910306
vt 0.297425 0.958831
vt 0.299748 0.907904
vt 0.253809 0.718630
vt 0.239633 0.663743
vt 0.286022 0.734281
vt 0.240863 0.905212
vt 0.603906 0.804750
vt 0.560512 0.855728
vt 0.560609 0.804750
vt 0.516652 0.855728
vt 0.273270 0.767626
vt 0.371097 0.748580
vt 0.327307 0.716263
vt 0.358747 0.697543
vt 0.902577 0.809252
vt 0.966239 0.797511
vt 0.339657 0.767301
vt 0.306250 0.767465
vt 0.603907 0.906799
vt 0.572840 0.957738
vt 0.572840 0.906758
vt 0.132102 0.751462
vt 0.110194 0.764507
vt 0.920612 0.458869
vt 0.880062 0.478514
vt 0.885749 0.432652
vt 0.904305 0.510399
vt 0.851256 0.499919
vt 0.734635 0.487302
vt 0.804986 0.530621
vt 0.864488 0.539611
vt 0.386932 0.904508
vt 0.761320 0.467662
vt 0.640391 0.584898
vt 0.575488 0.563660
vt 0.523489 0.572610
vt 0.467288 0.574627
vt 0.466146 0.634970
vt 0.539598 0.957788
vt 0.539598 0.906808
vt 0.652658 0.334982
vt 0.659744 0.322339
vt 0.713175 0.290243
vt 0.712331 0.268820
vt 0.723208 0.284674
vt 0.832619 0.313368
vt 0.843276 0.297198
vt 0.857943 0.299998
vt 0.292827 0.469022
vt 0.624665 0.320473
vt 0.629809 0.297838
vt 0.711307 0.217498
vt 0.709742 0.244250
vt 0.761369 0.340247
vt 0.781104 0.316300
vt 0.666926 0.359257
vt 0.820572 0.302581
vt 0.728780 0.254132
vt 0.902257 0.596061
vt 0.901010 0.580169
vt 0.922650 0.593016
vt 0.636990 0.348475
vt 0.613452 0.340526
vt 0.640044 0.370008
vt 0.682545 0.393151
vt 0.636944 0.392388
vt 0.643277 0.419505
vt 0.791426 0.291003
vt 0.765554 0.306212
vt 0.745870 0.331728
vt 0.611423 0.362756
vt 0.573346 0.312496
vt 0.567543 0.311062
vt 0.560952 0.294143
vt 0.729114 0.229539
vt 0.588655 0.382385
vt 0.615971 0.394511
vt 0.596672 0.409752
vt 0.618613 0.422174
vt 0.906456 0.601751
vt 0.743310 0.168504
vt 0.737626 0.162945
vt 0.753868 0.153241
vt 0.675681 0.422174
vt 0.709599 0.395529
vt 0.698299 0.420435
vt 0.713297 0.418570
vt 0.715070 0.388737
vt 0.730487 0.413837
vt 0.748411 0.172749
vt 0.595994 0.313885
vt 0.585468 0.290243
vt 0.573623 0.298564
vt 0.588750 0.340744
vt 0.396178 0.587009
vt 0.470879 0.907412
vt 0.729532 0.572304
vt 0.656022 0.883989
vt 0.433469 0.894293
vt 0.488825 0.886383
vt 0.473532 0.904508
vt 0.518350 0.954401
vt 0.470879 0.930949
vt 0.518350 0.930863
vt 0.470879 0.954486
vt 0.423080 0.878701
vt 0.518350 0.907326
vt 0.372272 0.887533
vt 0.804693 0.539611
vt 0.562254 0.382303
vt 0.546329 0.335497
vt 0.584406 0.385758
vt 0.560952 0.422174
vt 0.586202 0.422174
vt 0.573898 0.430036
vt 0.861603 0.604115
vt 0.692697 0.184037
vt 0.436688 0.865992
vt 0.741543 0.379127
vt 0.060182 0.416601
vt 0.047695 0.432652
vt 0.920612 0.432652
vt 0.962784 0.432652
vt 0.952742 0.473493
vt 0.524939 0.137235
vt 0.897825 0.334320
vt 0.899832 0.259202
vt 0.885100 0.277123
vt 0.826464 0.259202
vt 0.956536 0.898755
vt 0.913603 0.705379
vt 0.653878 0.805743
vt 0.954455 0.095272
vt 0.938339 0.984236
vt 0.852273 0.136815
vt 0.320178 0.019056
vt 0.185494 0.329570
vt 0.953182 0.048164
vt 0.396177 0.529577
vt 0.814438 0.417558
vt 0.560952 0.012527
vt 0.590160 0.000000
vt 0.852273 0.048164
vt 0.761954 0.193270
vt 0.176809 0.971470
vt 0.348625 0.303519
vt 0.756348 0.172620
vt 0.817060 0.173681
vt 0.002946 0.961881
vt 0.603907 0.753773
vt 0.516652 0.804751
vt 0.932351 0.158625
vt 0.371847 0.380283
vt 0.603907 0.855769
vt 0.722081 0.336301
vt 0.396177 0.765929
vt 0.418126 0.753773
vt 0.435213 0.765929
vt 0.897532 0.350971
vt 0.119249 0.339345
vt 0.132807 0.355398
vt 0.063913 0.267714
vt 0.098630 0.406507
vt 0.897825 0.290243
vt 0.805051 0.604115
vt 0.755902 0.634970
vt 0.728683 0.533288
vt 0.478058 0.865269
vt 0.510724 0.865301
vt 0.801205 0.889691
vt 0.603906 0.961159
vt 0.564807 0.172662
vt 0.038468 0.245006
vt 0.041963 0.234978
vt 0.092735 0.255750
vt 0.886676 0.736679
vt 0.911709 0.718213
vt 0.970415 0.380955
vt 0.753868 0.286112
vt 0.813095 0.259202
vt 0.826464 0.286112
vt 0.470690 0.634970
vt 0.132501 0.622017
vt 0.884190 0.742806
vt 0.903172 0.864787
vt 0.578363 0.751649
vt 0.080338 0.669251
vt 0.999916 0.334320
vt 0.989407 0.001323
vt 0.897893 0.292765
vt 0.639204 0.633669
vt 0.165557 0.772896
vt 0.253870 0.432652
vt 0.456925 0.634134
vt 0.233538 0.788605
vt 0.350373 0.961233
vt 0.317462 0.715561
vt 0.603809 0.855728
vt 0.516750 0.804750
vt 0.966239 0.842111
vt 0.911547 0.843403
vt 0.299541 0.708018
vt 0.603907 0.957779
vt 0.121749 0.712815
vt 0.936444 0.259202
vt 0.936444 0.289309
vt 0.899832 0.267906
vt 0.741543 0.348355
vt 0.326029 0.478611
vt 0.589271 0.359302
vt 0.603906 0.864787
vt 0.889719 0.860745
vt 0.861624 0.843404
vt 0.924572 0.843404
vt 0.733452 0.158664
s 1
f 51/1/48 55/2/52 47/3/44
f 50/4/47 55/5/52 37/6/34
f 36/7/33 40/8/37 60/9/57
f 46/10/43 41/11/38 42/12/39
f 60/13/57 39/14/36 57/15/54
f 42/12/39 36/16/33 38/17/35
f 39/18/36 38/17/35 57/19/54
f 46/10/43 49/20/46 45/21/42
f 41/22/38 44/23/41 40/24/37
f 43/25/40 42/26/39 39/27/36
f 40/28/37 43/29/40 39/14/36
f 54/30/51 37/31/34 112/32/109
f 49/33/46 44/34/41 45/35/42
f 43/36/40 50/37/47 46/10/43
f 48/38/45 43/29/40 44/39/41
f 51/40/48 53/41/50 54/42/51
f 52/43/49 47/3/44 48/38/45
f 50/37/47 53/44/50 49/20/46
f 53/45/50 48/46/45 49/33/46
f 54/42/51 111/47/108 51/40/48
f 67/48/64 57/49/54 56/50/53
f 71/51/68 60/13/57 57/15/54
f 66/52/63 63/53/60 58/54/55
f 74/55/71 63/53/60 72/56/69
f 78/57/75 124/58/121 81/59/78
f 74/55/71 81/59/78 64/60/61
f 75/61/72 78/57/75 74/55/71
f 77/62/74 78/57/75 75/61/72
f 73/63/70 74/55/71 72/56/69
f 62/64/59 67/65/64 56/66/53
f 67/65/64 72/56/69 66/52/63
f 61/67/58 70/68/67 59/69/56
f 68/70/65 71/51/68 70/68/67
f 59/69/56 66/52/63 58/54/55
f 66/52/63 71/51/68 67/65/64
f 77/71/74 90/72/87 89/73/86
f 76/74/73 89/73/86 88/75/85
f 124/76/121 88/75/85 2/77/2
f 80/78/77 2/79/2 6/80/6
f 79/81/76 1/82/1 64/83/61
f 64/84/61 87/85/84 63/86/60
f 58/87/55 87/85/84 86/88/83
f 58/87/55 85/89/82 59/90/56
f 61/91/58 85/89/82 84/92/81
f 61/93/58 83/94/80 68/95/65
f 69/96/66 83/97/80 82/98/79
f 69/96/66 36/99/33 60/100/57
f 93/101/90 96/102/93 97/103/94
f 94/104/91 97/105/94 98/106/95
f 75/61/72 65/107/62 77/62/74
f 94/108/91 73/63/70 62/64/59
f 96/102/93 101/109/98 97/103/94
f 94/108/91 95/110/92 65/107/62
f 65/111/62 96/112/93 90/113/87
f 100/114/97 105/115/102 101/109/98
f 101/116/98 106/117/103 102/118/99
f 95/110/92 102/119/99 99/120/96
f 96/102/93 99/121/96 100/114/97
f 97/105/94 102/118/99 98/106/95
f 103/122/100 105/123/102 104/124/101
f 104/124/101 109/125/106 103/122/100
f 99/120/96 106/126/103 103/127/100
f 107/128/104 110/129/107 108/130/105
f 104/131/101 122/132/119 108/130/105
f 103/127/100 109/133/106 107/134/104
f 123/135/120 108/136/105 122/137/119
f 112/32/109 55/138/52 111/139/108
f 113/140/110 116/141/113 115/142/112
f 83/143/80 114/144/111 113/140/110
f 115/142/112 118/145/115 117/146/114
f 120/147/117 29/148/29 119/149/116
f 117/146/114 120/147/117 119/149/116
f 3/150/3 160/151/157 29/152/29
f 29/148/29 121/153/118 3/154/3
f 56/50/53 38/155/35 92/156/89
f 56/50/53 91/157/88 62/158/59
f 62/158/59 93/159/90 94/160/91
f 99/161/96 122/137/119 100/162/97
f 139/163/136 128/164/125 127/165/124
f 81/166/78 134/167/131 64/83/61
f 130/168/127 154/169/151 145/170/142
f 136/171/133 81/59/78 124/58/121
f 156/172/153 127/173/124 126/174/123
f 79/81/76 137/175/134 131/176/128
f 80/177/77 136/171/133 124/58/121
f 141/178/138 129/179/126 128/180/125
f 64/83/61 132/181/129 79/81/76
f 145/170/142 80/78/77 130/168/127
f 130/168/127 6/80/6 5/182/5
f 133/183/130 134/184/131 148/185/145
f 161/186/158 155/187/152 162/188/159
f 140/189/137 156/172/153 157/190/154
f 140/189/137 141/178/138 139/191/136
f 142/192/139 143/193/140 141/178/138
f 146/194/143 143/193/140 144/195/141
f 146/196/143 135/197/132 145/170/142
f 147/198/144 136/199/133 135/197/132
f 140/189/137 149/200/146 142/192/139
f 163/201/160 155/202/152 164/203/161
f 138/204/135 132/205/129 133/183/130
f 149/200/146 133/183/130 150/206/147
f 149/200/146 144/195/141 142/192/139
f 150/206/147 146/194/143 144/195/141
f 148/185/145 150/206/147 133/183/130
f 165/207/162 155/187/152 161/186/158
f 166/208/163 155/209/152 165/210/162
f 145/211/142 153/212/150 143/193/140
f 153/213/150 152/214/149 151/215/148
f 7/216/7 151/215/148 152/214/149
f 153/212/150 129/179/126 143/193/140
f 5/182/5 152/214/149 130/168/127
f 164/203/161 155/202/152 166/217/163
f 157/190/154 158/218/155 159/219/156
f 156/172/153 126/174/123 158/218/155
f 158/220/155 162/221/159 167/222/164
f 163/223/160 167/224/164 155/225/152
f 157/190/154 159/219/156 149/200/146
f 30/226/30 3/227/3 121/228/118
f 93/159/90 12/229/12 90/230/87
f 20/231/20 215/232/212 19/233/19
f 11/234/11 88/75/85 89/73/86
f 12/235/12 89/73/86 90/72/87
f 92/156/89 9/236/9 32/237/32
f 91/157/88 32/237/32 31/238/31
f 36/239/33 9/236/9 38/155/35
f 93/159/90 31/238/31 21/240/21
f 20/231/20 82/98/79 83/97/80
f 248/241/243 22/242/22 23/243/23
f 26/244/26 120/245/117 118/246/115
f 248/241/243 25/247/25 250/248/245
f 19/233/19 169/249/166 10/250/10
f 26/244/26 253/251/248 27/252/27
f 120/245/117 30/226/30 121/228/118
f 115/253/112 25/247/25 23/243/23
f 16/254/16 217/255/214 17/256/17
f 14/257/14 219/258/216 15/259/15
f 22/242/22 115/253/112 23/243/23
f 246/260/241 20/261/20 22/242/22
f 17/256/17 247/262/242 18/263/18
f 1/264/1 14/257/14 87/85/84
f 261/265/254 127/165/124 128/164/125
f 4/266/4 131/176/128 264/267/257
f 259/268/252 125/269/122 126/270/123
f 262/271/255 128/164/125 129/272/126
f 13/273/13 2/77/2 88/75/85
f 166/208/163 131/176/128 137/175/134
f 138/274/135 166/208/163 137/175/134
f 163/275/160 138/276/135 149/277/146
f 158/278/155 167/224/164 163/223/160
f 155/279/152 167/222/164 162/221/159
f 125/269/122 162/188/159 126/270/123
f 165/210/162 125/280/122 131/176/128
f 188/281/185 184/282/181 180/283/177
f 183/284/180 188/285/185 180/286/177
f 169/287/166 173/288/170 174/289/171
f 174/290/171 179/291/176 175/292/172
f 193/293/190 172/294/169 173/295/170
f 169/296/166 175/292/172 171/297/168
f 171/298/168 172/294/169 190/299/187
f 179/291/176 182/300/179 183/301/180
f 173/302/170 178/303/175 174/304/171
f 175/305/172 176/306/173 172/307/169
f 173/295/170 176/308/173 177/309/174
f 187/310/184 170/311/167 183/301/180
f 177/312/174 182/313/179 178/314/175
f 176/308/173 183/315/180 180/283/177
f 176/308/173 181/316/178 177/309/174
f 186/317/183 184/318/181 187/319/184
f 180/283/177 185/320/182 181/316/178
f 183/301/180 186/321/183 187/310/184
f 181/322/178 186/323/183 182/313/179
f 244/324/239 187/319/184 184/318/181
f 200/325/197 190/299/187 204/326/201
f 204/326/201 193/293/190 202/327/199
f 199/328/196 196/329/193 205/330/202
f 196/329/193 207/331/204 205/330/202
f 211/332/208 257/333/250 209/334/206
f 207/331/204 214/335/211 211/332/208
f 208/336/205 207/331/204 211/332/208
f 211/332/208 210/337/207 208/336/205
f 206/338/203 207/331/204 208/336/205
f 200/339/197 195/340/192 189/341/186
f 200/325/197 205/330/202 206/338/203
f 203/342/200 194/343/191 192/344/189
f 204/326/201 201/345/198 203/342/200
f 199/328/196 192/344/189 191/346/188
f 199/328/196 204/326/201 203/342/200
f 210/337/207 223/347/220 198/348/195
f 209/334/206 222/349/219 210/337/207
f 257/333/250 221/350/218 209/334/206
f 213/351/210 2/79/2 257/352/250
f 1/82/1 212/353/209 197/354/194
f 220/355/217 197/356/194 196/357/193
f 191/358/188 220/355/217 196/357/193
f 218/359/215 191/358/188 192/360/189
f 194/361/191 218/359/215 192/360/189
f 216/362/213 194/361/191 201/363/198
f 202/364/199 216/362/213 201/363/198
f 169/249/166 202/365/199 193/366/190
f 226/367/223 229/368/226 223/369/220
f 227/370/224 230/371/227 226/372/223
f 208/336/205 198/348/195 227/373/224
f 206/374/203 227/375/224 195/376/192
f 234/377/231 229/368/226 230/378/227
f 228/379/225 227/373/224 198/348/195
f 229/380/226 198/348/195 223/347/220
f 238/381/233 233/382/230 234/377/231
f 239/383/234 234/384/231 235/385/232
f 228/379/225 235/386/232 231/387/228
f 229/380/226 232/388/229 228/379/225
f 235/385/232 230/371/227 231/389/228
f 238/390/233 236/391/101 237/392/100
f 242/393/237 237/392/100 236/391/101
f 232/388/229 239/394/234 235/386/232
f 243/395/238 240/396/235 241/397/236
f 255/398/120 233/382/230 237/399/100
f 240/396/235 242/400/237 236/401/101
f 241/402/236 256/403/119 255/404/120
f 188/281/185 245/405/240 244/406/239
f 246/407/241 249/408/244 247/409/242
f 216/362/213 247/262/242 217/255/214
f 248/410/243 251/411/246 249/408/244
f 168/412/165 253/251/248 252/413/247
f 250/414/245 253/251/248 251/411/246
f 3/150/3 168/415/165 160/151/157
f 168/412/165 3/227/3 254/416/249
f 171/417/168 189/341/186 225/418/222
f 189/341/186 224/419/221 225/418/222
f 226/420/223 195/340/192 227/421/224
f 255/404/120 232/422/229 233/423/230
f 261/265/254 272/424/265 260/425/253
f 214/426/211 267/427/260 281/428/274
f 263/429/256 287/430/280 285/431/278
f 214/335/211 269/432/262 257/333/250
f 260/425/253 289/433/282 259/434/252
f 212/353/209 270/435/263 265/436/258
f 213/351/210 269/437/262 268/438/261
f 262/271/255 274/439/267 261/265/254
f 197/354/194 265/436/258 267/427/260
f 213/351/210 278/440/271 263/429/256
f 6/80/6 263/429/256 5/182/5
f 267/427/260 266/441/259 281/428/274
f 293/442/286 294/443/287 288/444/281
f 289/433/282 273/445/266 290/446/283
f 273/445/266 274/439/267 275/447/268
f 275/447/268 276/448/269 277/449/270
f 276/448/269 279/450/272 277/449/270
f 279/451/272 268/438/261 280/452/273
f 280/452/273 269/437/262 281/453/274
f 273/445/266 282/454/275 290/446/283
f 295/455/288 296/456/289 288/457/281
f 265/436/258 271/458/264 266/441/259
f 266/459/259 282/454/275 283/460/276
f 277/449/270 282/454/275 275/447/268
f 279/450/272 283/460/276 277/449/270
f 281/461/274 283/460/276 280/462/273
f 297/463/290 293/442/286 288/444/281
f 298/464/291 297/465/290 288/466/281
f 278/467/271 286/468/279 287/469/280
f 285/470/278 286/468/279 284/471/277
f 284/471/277 7/472/7 285/470/278
f 262/271/255 286/468/279 276/448/269
f 5/182/5 285/431/278 7/216/7
f 296/473/289 298/464/291 288/466/281
f 290/446/283 291/474/284 289/433/282
f 289/433/282 291/474/284 259/434/252
f 294/475/287 291/474/284 299/476/292
f 295/455/288 288/457/281 299/476/292
f 290/446/283 282/454/275 292/477/285
f 30/226/30 254/416/249 3/227/3
f 12/229/12 226/420/223 223/478/220
f 252/479/247 160/151/157 168/415/165
f 221/350/218 11/234/11 222/349/219
f 222/349/219 12/235/12 223/347/220
f 225/418/222 9/236/9 171/417/168
f 19/233/19 36/99/33 82/98/79
f 31/238/31 225/418/222 224/419/221
f 9/236/9 169/480/166 171/417/168
f 226/420/223 31/238/31 224/419/221
f 20/261/20 113/481/110 22/242/22
f 84/92/81 16/254/16 17/256/17
f 116/482/113 26/483/26 118/484/115
f 117/485/114 28/486/28 25/487/25
f 160/151/157 119/488/116 29/152/29
f 247/262/242 24/489/24 18/263/18
f 30/226/30 253/251/248 254/416/249
f 250/490/245 28/486/28 252/479/247
f 219/258/216 16/254/16 15/259/15
f 114/491/111 17/256/17 18/263/18
f 114/491/111 24/489/24 116/482/113
f 86/88/83 14/257/14 15/259/15
f 86/88/83 16/254/16 85/89/82
f 1/264/1 220/355/217 14/257/14
f 4/266/4 79/81/76 131/176/128
f 4/266/4 264/267/257 212/353/209
f 127/492/124 259/268/252 126/270/123
f 125/280/122 264/267/257 131/176/128
f 13/273/13 221/350/218 2/77/2
f 264/267/257 298/464/291 270/435/263
f 271/458/264 298/464/291 296/473/289
f 271/493/264 295/494/288 282/495/275
f 295/455/288 291/474/284 292/477/285
f 288/496/281 294/497/287 299/498/292
f 258/499/251 294/443/287 293/442/286
f 258/500/251 297/465/290 264/267/257
f 249/501/244 26/483/26 24/489/24
f 284/471/277 262/271/255 8/502/8
f 151/503/148 8/504/8 129/179/126
f 129/505/126 8/506/8 262/507/255
f 51/1/48 111/508/108 55/2/52
f 50/4/47 47/509/44 55/5/52
f 36/510/33 41/511/38 40/512/37
f 46/10/43 45/21/42 41/11/38
f 60/13/57 40/28/37 39/14/36
f 42/12/39 41/11/38 36/16/33
f 39/18/36 42/12/39 38/17/35
f 46/10/43 50/37/47 49/20/46
f 41/22/38 45/513/42 44/23/41
f 43/25/40 46/514/43 42/26/39
f 40/28/37 44/39/41 43/29/40
f 54/30/51 50/37/47 37/31/34
f 49/33/46 48/46/45 44/34/41
f 43/36/40 47/515/44 50/37/47
f 48/38/45 47/3/44 43/29/40
f 51/40/48 52/516/49 53/41/50
f 52/43/49 51/1/48 47/3/44
f 50/37/47 54/30/51 53/44/50
f 53/45/50 52/517/49 48/46/45
f 54/42/51 112/518/109 111/47/108
f 67/65/64 71/51/68 57/15/54
f 71/51/68 69/519/66 60/13/57
f 66/52/63 72/56/69 63/53/60
f 74/55/71 64/60/61 63/53/60
f 78/57/75 76/520/73 124/58/121
f 74/55/71 78/57/75 81/59/78
f 77/62/74 76/520/73 78/57/75
f 73/63/70 75/61/72 74/55/71
f 62/64/59 73/63/70 67/65/64
f 67/65/64 73/63/70 72/56/69
f 61/93/58 68/95/65 70/521/67
f 68/70/65 69/519/66 71/51/68
f 59/69/56 70/68/67 66/52/63
f 66/52/63 70/68/67 71/51/68
f 77/71/74 65/522/62 90/72/87
f 76/74/73 77/71/74 89/73/86
f 124/76/121 76/74/73 88/75/85
f 80/78/77 124/523/121 2/79/2
f 79/81/76 4/266/4 1/82/1
f 64/84/61 1/264/1 87/85/84
f 58/87/55 63/86/60 87/85/84
f 58/87/55 86/88/83 85/89/82
f 61/91/58 59/90/56 85/89/82
f 61/524/58 84/525/81 83/143/80
f 69/526/66 68/95/65 83/94/80
f 69/96/66 82/98/79 36/99/33
f 93/101/90 90/527/87 96/102/93
f 94/104/91 93/528/90 97/105/94
f 75/61/72 94/108/91 65/107/62
f 94/108/91 75/61/72 73/63/70
f 96/102/93 100/114/97 101/109/98
f 94/108/91 98/529/95 95/110/92
f 65/530/62 95/531/92 96/102/93
f 100/114/97 104/131/101 105/115/102
f 101/116/98 105/532/102 106/117/103
f 95/110/92 98/529/95 102/119/99
f 96/102/93 95/531/92 99/121/96
f 97/105/94 101/116/98 102/118/99
f 103/122/100 106/533/103 105/123/102
f 104/124/101 110/534/107 109/125/106
f 99/120/96 102/119/99 106/126/103
f 107/128/104 109/535/106 110/129/107
f 108/130/105 110/129/107 104/131/101
f 104/131/101 100/114/97 122/132/119
f 107/134/104 123/536/120 103/127/100
f 123/536/120 99/120/96 103/127/100
f 123/135/120 107/537/104 108/136/105
f 112/32/109 37/31/34 55/138/52
f 113/140/110 114/144/111 116/141/113
f 83/143/80 84/525/81 114/144/111
f 115/142/112 116/141/113 118/145/115
f 120/147/117 121/153/118 29/148/29
f 117/146/114 118/145/115 120/147/117
f 56/50/53 57/49/54 38/155/35
f 56/50/53 92/156/89 91/157/88
f 62/158/59 91/157/88 93/159/90
f 99/161/96 123/135/120 122/137/119
f 139/163/136 141/538/138 128/164/125
f 81/59/78 148/185/145 134/184/131
f 130/168/127 152/214/149 154/169/151
f 136/171/133 148/185/145 81/59/78
f 156/539/153 139/540/136 127/541/124
f 79/81/76 132/181/129 137/175/134
f 80/78/77 135/197/132 136/199/133
f 141/178/138 143/193/140 129/179/126
f 64/83/61 134/167/131 132/181/129
f 145/170/142 135/197/132 80/78/77
f 130/168/127 80/78/77 6/80/6
f 133/183/130 132/205/129 134/184/131
f 140/189/137 139/191/136 156/172/153
f 140/189/137 142/192/139 141/178/138
f 142/192/139 144/195/141 143/193/140
f 146/196/143 145/170/142 143/542/140
f 146/194/143 147/543/144 135/544/132
f 147/543/144 148/185/145 136/171/133
f 140/189/137 157/190/154 149/200/146
f 138/204/135 137/545/134 132/205/129
f 149/200/146 138/204/135 133/183/130
f 149/200/146 150/206/147 144/195/141
f 150/206/147 147/543/144 146/194/143
f 148/185/145 147/543/144 150/206/147
f 145/211/142 154/546/151 153/212/150
f 153/213/150 154/169/151 152/214/149
f 7/216/7 8/547/8 151/215/148
f 153/212/150 151/503/148 129/179/126
f 5/182/5 7/216/7 152/214/149
f 157/190/154 156/172/153 158/218/155
f 158/220/155 126/548/123 162/221/159
f 93/159/90 21/240/21 12/229/12
f 20/231/20 216/549/213 215/232/212
f 11/234/11 13/273/13 88/75/85
f 12/235/12 11/234/11 89/73/86
f 92/156/89 38/155/35 9/236/9
f 91/157/88 92/156/89 32/237/32
f 36/239/33 10/550/10 9/236/9
f 93/159/90 91/157/88 31/238/31
f 20/231/20 19/233/19 82/98/79
f 248/241/243 246/260/241 22/242/22
f 26/244/26 27/252/27 120/245/117
f 248/241/243 23/243/23 25/247/25
f 19/233/19 215/232/212 169/249/166
f 26/483/26 251/551/246 253/552/248
f 120/245/117 27/252/27 30/226/30
f 115/253/112 117/553/114 25/247/25
f 16/254/16 218/359/215 217/255/214
f 14/257/14 220/355/217 219/258/216
f 22/242/22 113/481/110 115/253/112
f 246/260/241 216/554/213 20/261/20
f 17/256/17 217/255/214 247/262/242
f 261/265/254 260/425/253 127/165/124
f 259/268/252 258/499/251 125/269/122
f 262/271/255 261/265/254 128/164/125
f 166/208/163 165/210/162 131/176/128
f 138/274/135 164/555/161 166/208/163
f 163/556/160 164/557/161 138/558/135
f 163/223/160 149/559/146 159/560/156
f 159/560/156 158/278/155 163/223/160
f 125/269/122 161/186/158 162/188/159
f 165/207/162 161/186/158 125/269/122
f 188/281/185 244/406/239 184/282/181
f 183/284/180 170/561/167 188/285/185
f 169/562/166 193/563/190 173/564/170
f 174/290/171 178/565/175 179/291/176
f 193/293/190 190/299/187 172/294/169
f 169/296/166 174/290/171 175/292/172
f 171/298/168 175/566/172 172/294/169
f 179/291/176 178/565/175 182/300/179
f 173/302/170 177/567/174 178/303/175
f 175/305/172 179/568/176 176/306/173
f 173/295/170 172/294/169 176/308/173
f 187/310/184 245/569/240 170/311/167
f 177/312/174 181/322/178 182/313/179
f 176/308/173 179/570/176 183/315/180
f 176/308/173 180/283/177 181/316/178
f 186/317/183 185/571/182 184/318/181
f 180/283/177 184/282/181 185/320/182
f 183/301/180 182/300/179 186/321/183
f 181/322/178 185/572/182 186/323/183
f 244/324/239 245/573/240 187/319/184
f 200/339/197 189/341/186 190/574/187
f 204/326/201 190/299/187 193/293/190
f 199/575/196 191/358/188 196/357/193
f 196/329/193 197/576/194 207/331/204
f 211/332/208 214/335/211 257/333/250
f 207/331/204 197/576/194 214/335/211
f 211/332/208 209/334/206 210/337/207
f 206/338/203 205/330/202 207/331/204
f 200/339/197 206/577/203 195/340/192
f 200/325/197 199/328/196 205/330/202
f 203/578/200 201/363/198 194/361/191
f 204/326/201 202/327/199 201/345/198
f 199/328/196 203/342/200 192/344/189
f 199/328/196 200/325/197 204/326/201
f 210/337/207 222/349/219 223/347/220
f 209/334/206 221/350/218 222/349/219
f 257/333/250 2/77/2 221/350/218
f 213/351/210 6/80/6 2/79/2
f 1/82/1 4/266/4 212/353/209
f 220/355/217 1/264/1 197/356/194
f 191/358/188 219/258/216 220/355/217
f 218/359/215 219/258/216 191/358/188
f 194/361/191 217/255/214 218/359/215
f 216/362/213 217/255/214 194/361/191
f 202/365/199 215/232/212 216/549/213
f 169/249/166 215/232/212 202/365/199
f 226/367/223 230/378/227 229/368/226
f 227/370/224 231/389/228 230/371/227
f 208/336/205 210/337/207 198/348/195
f 206/338/203 208/336/205 227/373/224
f 234/377/231 233/382/230 229/368/226
f 228/379/225 231/387/228 227/373/224
f 229/380/226 228/379/225 198/348/195
f 238/381/233 237/399/100 233/382/230
f 239/383/234 238/579/233 234/384/231
f 228/379/225 232/388/229 235/386/232
f 229/380/226 233/580/230 232/388/229
f 235/385/232 234/384/231 230/371/227
f 238/390/233 239/581/234 236/391/101
f 242/393/237 243/582/238 237/392/100
f 232/388/229 236/401/101 239/394/234
f 243/395/238 242/400/237 240/396/235
f 237/399/100 243/583/238 241/584/236
f 241/584/236 255/398/120 237/399/100
f 232/388/229 256/585/119 236/401/101
f 256/585/119 240/396/235 236/401/101
f 241/402/236 240/586/235 256/403/119
f 188/281/185 170/587/167 245/405/240
f 246/407/241 248/410/243 249/408/244
f 216/588/213 246/589/241 247/590/242
f 248/410/243 250/414/245 251/411/246
f 168/412/165 254/416/249 253/251/248
f 250/414/245 252/413/247 253/251/248
f 171/417/168 190/574/187 189/341/186
f 189/341/186 195/340/192 224/419/221
f 226/420/223 224/419/221 195/340/192
f 255/404/120 256/403/119 232/422/229
f 261/265/254 274/439/267 272/424/265
f 214/426/211 197/354/194 267/427/260
f 263/429/256 278/440/271 287/430/280
f 214/591/211 281/453/274 269/437/262
f 260/425/253 272/424/265 289/433/282
f 212/353/209 264/267/257 270/435/263
f 213/592/210 257/333/250 269/432/262
f 262/271/255 276/448/269 274/439/267
f 197/354/194 212/353/209 265/436/258
f 213/351/210 268/438/261 278/440/271
f 6/80/6 213/351/210 263/429/256
f 267/427/260 265/436/258 266/441/259
f 289/433/282 272/424/265 273/445/266
f 273/445/266 272/424/265 274/439/267
f 275/447/268 274/439/267 276/448/269
f 276/448/269 278/467/271 279/450/272
f 279/451/272 278/440/271 268/438/261
f 280/452/273 268/438/261 269/437/262
f 273/445/266 275/447/268 282/454/275
f 265/436/258 270/435/263 271/458/264
f 266/459/259 271/593/264 282/454/275
f 277/449/270 283/460/276 282/454/275
f 279/450/272 280/462/273 283/460/276
f 281/461/274 266/459/259 283/460/276
f 278/467/271 276/448/269 286/468/279
f 285/470/278 287/469/280 286/468/279
f 284/471/277 8/502/8 7/472/7
f 262/271/255 284/471/277 286/468/279
f 5/182/5 263/429/256 285/431/278
f 290/446/283 292/477/285 291/474/284
f 294/475/287 259/434/252 291/474/284
f 12/229/12 21/240/21 226/420/223
f 252/479/247 28/486/28 160/151/157
f 221/350/218 13/273/13 11/234/11
f 222/349/219 11/234/11 12/235/12
f 225/418/222 32/237/32 9/236/9
f 19/233/19 10/250/10 36/99/33
f 31/238/31 32/237/32 225/418/222
f 9/236/9 10/550/10 169/480/166
f 226/420/223 21/240/21 31/238/31
f 20/261/20 83/594/80 113/481/110
f 84/92/81 85/89/82 16/254/16
f 116/482/113 24/489/24 26/483/26
f 117/485/114 119/488/116 28/486/28
f 160/151/157 28/486/28 119/488/116
f 247/262/242 249/501/244 24/489/24
f 30/226/30 27/252/27 253/251/248
f 250/490/245 25/487/25 28/486/28
f 219/258/216 218/359/215 16/254/16
f 114/491/111 84/92/81 17/256/17
f 114/491/111 18/263/18 24/489/24
f 86/88/83 87/85/84 14/257/14
f 86/88/83 15/259/15 16/254/16
f 127/165/124 260/425/253 259/434/252
f 125/280/122 258/500/251 264/267/257
f 264/267/257 297/465/290 298/464/291
f 271/458/264 270/435/263 298/464/291
f 271/593/264 296/456/289 295/455/288
f 292/595/285 282/596/275 295/597/288
f 295/455/288 299/476/292 291/474/284
f 258/499/251 259/268/252 294/443/287
f 258/500/251 293/598/286 297/465/290
f 249/501/244 251/551/246 26/483/26
l 5 34
l 33 34
l 34 35
